<?xml version="1.0" encoding="utf-8"?>
<!-- Generator: Adobe Illustrator 28.0.0, SVG Export Plug-In . SVG Version: 6.00 Build 0)  -->
<svg version="1.1" id="Layer_1" xmlns="http://www.w3.org/2000/svg" xmlns:xlink="http://www.w3.org/1999/xlink" x="0px" y="0px"
	 viewBox="0 0 202 110" style="enable-background:new 0 0 202 110;" xml:space="preserve">
<style type="text/css">
	.st0{fill:url(#SVGID_1_);}
	.st1{fill:#FFFFFF;}
	.st2{fill:#6D6E71;}
</style>
<g>
	<linearGradient id="SVGID_1_" gradientUnits="userSpaceOnUse" x1="42.1529" y1="54.6093" x2="167.0706" y2="54.6093">
		<stop  offset="0" style="stop-color:#D74127"/>
		<stop  offset="1" style="stop-color:#F36C23"/>
	</linearGradient>
	<path class="st0" d="M143.2,107.2H53.6C24.7,107.2,1,83.7,1,54.6S24.7,2,53.6,2h89.6c28.9,0,52.6,23.7,52.6,52.6
		S172.1,107.2,143.2,107.2z"/>
	<g>
		<path class="st1" d="M45.6,79V30.2c0-1.8,1.5-3.4,3.5-3.4c1.8,0,3.4,1.6,3.4,3.4V79c0,1.8-1.6,3.4-3.4,3.4
			C47.1,82.4,45.6,80.8,45.6,79z"/>
		<path class="st1" d="M59.5,78.4V30.8c0-2.3,1.3-3.6,3.6-3.6H84c9.5,0,15.4,5.8,15.4,14c0,6.9-4.6,11.5-9.6,12.6
			c5.8,0.9,10.7,6.9,10.7,13.5c0,8.8-5.8,14.8-15.9,14.8H63.1C60.8,82.1,59.5,80.7,59.5,78.4z M82.8,50.9c6.2,0,9.5-3.8,9.5-8.8
			c0-4.9-3.3-8.9-9.5-8.9H66.3v17.7H82.8z M83.1,76c6.4,0,10.2-3.6,10.2-9.5c0-5-3.5-9.5-10.2-9.5H66.3V76H83.1z"/>
		<path class="st1" d="M143.6,80.7l-30.9-42.9V79c0,1.8-1.6,3.4-3.4,3.4c-2,0-3.5-1.6-3.5-3.4V31.3c0-2.4,2-4.4,4.4-4.4
			c1.5,0,2.8,0.7,3.6,1.8l30.5,41.9V30.2c0-1.8,1.6-3.4,3.4-3.4c2,0,3.5,1.6,3.5,3.4v48c0,2.3-1.9,4.2-4.2,4.2
			C145.6,82.4,144.3,81.7,143.6,80.7z"/>
	</g>
</g>
<g>
	<path class="st2" d="M190.3,7.4c0-3,2.4-5.4,5.4-5.4c3,0,5.4,2.4,5.4,5.4c0,3-2.4,5.4-5.4,5.4C192.7,12.7,190.3,10.3,190.3,7.4z
		 M191,7.4c0,2.5,2,4.6,4.6,4.6c2.5,0,4.6-2.1,4.6-4.6c0-2.6-2-4.6-4.6-4.6C193.1,2.8,191,4.8,191,7.4z M195.5,8h-1.1v2.4h-0.8V4.3
		h2.5c1,0,2,0.7,2,1.9c0,1.4-1.2,1.8-1.6,1.8l1.6,2.5h-1L195.5,8z M194.4,5v2.2h1.7c0.5,0,1.1-0.5,1.1-1.1c0-0.7-0.6-1.1-1.1-1.1
		H194.4z"/>
</g>
</svg>
