<svg width="52" height="53" viewBox="0 0 52 53" fill="none" xmlns="http://www.w3.org/2000/svg">
<path d="M2.89588 3.84068C-1.77075 8.50445 -0.623461 17.4077 5.08722 26.9385C-0.523013 36.2916 -1.83096 45.3208 2.89588 50.048C7.56251 54.7175 16.4681 53.5674 25.9937 47.8567C35.3468 53.4669 44.376 54.7749 49.1032 50.048C53.7699 45.3843 52.6254 36.481 46.9119 26.9502C52.5221 17.5972 53.8301 8.56789 49.1032 3.84068C46.04 0.777395 41.121 0.203786 35.3189 1.85875C34.3437 2.1341 33.7786 3.15231 34.0568 4.12748C34.335 5.0998 35.3504 5.66489 36.3256 5.3866C40.9749 4.06147 44.5515 4.47736 46.5076 6.43639C51.2632 11.1919 46.499 24.6153 35.0861 36.031C34.2113 36.9058 33.3164 37.749 32.4072 38.5579C31.65 39.2319 31.584 40.3907 32.2581 41.1479C32.9321 41.905 34.0909 41.9739 34.848 41.2999C35.8118 40.4451 36.7554 39.5531 37.6819 38.6267C40.3407 35.9679 42.6812 33.1915 44.6574 30.3978C48.8106 37.993 49.4416 44.5177 46.5074 47.4526C41.7518 52.2081 28.3284 47.444 16.9128 36.0311C16.038 35.1563 15.1947 34.2613 14.3859 33.3522C13.7118 32.595 12.5502 32.5261 11.793 33.2002C11.0359 33.8742 10.9699 35.0358 11.6439 35.793C12.4987 36.7539 13.3906 37.7004 14.3171 38.6268C16.9759 41.2857 19.7523 43.6262 22.546 45.6024C14.9595 49.7498 8.42825 50.3894 5.49118 47.4524C0.735636 42.6968 5.49979 29.2734 16.9127 17.8577C17.8506 16.9199 18.8086 16.0221 19.7809 15.1616L21.3326 13.8709C23.1396 12.3651 25.7382 12.279 27.6398 13.6615L29.3206 14.8805C29.8312 15.2506 30.5454 15.1358 30.9154 14.6253C31.1878 14.2467 31.2051 13.7419 30.9555 13.346L29.7968 11.5161C28.5921 9.61156 28.7671 7.14494 30.227 5.42969L31.5665 3.86078C31.9967 3.35598 31.9365 2.59586 31.4317 2.16566C31.0645 1.85302 30.5483 1.78992 30.118 2.00217L27.1035 3.49361C25.437 4.31966 23.455 4.17911 21.9206 3.12647L19.7063 1.60919C19.1757 1.24492 18.4529 1.37973 18.0915 1.91035C17.8276 2.2947 17.819 2.79948 18.0686 3.19245L19.1413 4.87613C20.4262 6.88963 20.1537 9.52264 18.4844 11.2292L17.1966 12.5486C16.2186 13.4148 15.2577 14.3212 14.3169 15.262C11.658 17.9208 9.31756 20.6972 7.34136 23.4909C3.19106 15.8986 2.55717 9.37094 5.49137 6.43608C7.03451 4.89294 9.57287 4.29921 12.9141 4.78684C13.9151 4.93025 14.8472 4.23614 14.9935 3.23225C15.1398 2.22836 14.4428 1.29908 13.4389 1.15281C9.04765 0.516062 5.35934 1.37397 2.89588 3.84068ZM34.3893 14.6109C33.6808 15.3394 33.698 16.501 34.4266 17.2067C34.6474 17.4218 34.8683 17.6398 35.0863 17.8578C36.4716 19.2431 37.7767 20.6772 38.9899 22.14C39.6381 22.9202 40.794 23.0263 41.5742 22.3809C42.3543 21.7327 42.4633 20.574 41.8151 19.7938C40.5301 18.245 39.1477 16.7277 37.682 15.262C37.4497 15.0297 37.2173 14.8002 36.985 14.5736C36.2565 13.868 35.0949 13.8852 34.3893 14.6109Z" fill="#2A94B2"/>
</svg>
