<?xml version="1.0" encoding="UTF-8"?>
<svg id="Isolation_Mode" data-name="Isolation Mode" xmlns="http://www.w3.org/2000/svg" viewBox="0 0 1811.63 757.95">
  <defs>
    <style>
      .cls-1 {
        fill: #fff;
      }

      .cls-2 {
        fill: #d7a032;
      }
    </style>
  </defs>
  <g>
    <path class="cls-1" d="M201.86,517.48h31.64c7.68,0,14.36,1.39,20.05,4.16,5.69,2.77,10.11,6.66,13.27,11.67,3.16,5.01,4.74,10.86,4.74,17.57,0,7.29-1.92,13.51-5.76,18.67-3.84,5.15-8.87,8.95-15.09,11.37l31.94,47.39h-15.6l-29.17-44.33c-1.56.1-3.16.15-4.81.15h-18.52v44.19h-12.69v-110.83ZM230.58,573.18c18.37,0,27.56-7.44,27.56-22.31,0-7.29-2.26-12.86-6.78-16.7-4.52-3.84-11.06-5.76-19.61-5.76h-17.21v44.77h16.04Z"/>
    <path class="cls-1" d="M312.54,517.48h68.25v11.23h-55.12v37.04h49.29v11.23h-49.29v40.1h57.31v11.23h-70.43v-110.83Z"/>
    <path class="cls-1" d="M417.97,517.48h40.25c11.96,0,22.29,2.24,30.99,6.71,8.7,4.47,15.41,10.84,20.12,19.1,4.71,8.26,7.07,18.08,7.07,29.46,0,17.6-5.3,31.26-15.9,40.98-10.6,9.72-25.62,14.58-45.06,14.58h-37.48v-110.83ZM455.74,617.08c31.21,0,46.81-14.73,46.81-44.19s-15.56-44.19-46.66-44.19h-24.79v88.37h24.64Z"/>
    <path class="cls-1" d="M548.48,517.48h68.25v11.23h-55.12v37.04h49.29v11.23h-49.29v40.1h57.31v11.23h-70.43v-110.83Z"/>
    <path class="cls-1" d="M643.27,517.48h14.44l36.31,96.98,36.46-96.98h13.56l-43.02,110.83h-14.73l-43.02-110.83Z"/>
    <path class="cls-1" d="M790.11,517.48h14.44l45.06,110.83h-14.15l-13.12-33.54h-50.75l-13.12,33.54h-13.42l45.06-110.83ZM817.97,583.83l-21-53.66-21,53.66h42Z"/>
    <path class="cls-1" d="M877.32,517.48h12.69l67.66,91.73v-91.73h12.1v110.83h-12.69l-67.66-91.72v91.72h-12.1v-110.83Z"/>
    <path class="cls-1" d="M1006.16,550.43c2.87-7.1,6.95-13.22,12.25-18.37,5.3-5.15,11.57-9.14,18.81-11.96,7.24-2.82,15.24-4.23,23.99-4.23,5.74,0,11.71.83,17.94,2.48,6.22,1.65,11.57,3.89,16.04,6.71l-2.33,11.81c-6.42-3.21-12.18-5.52-17.28-6.93-5.1-1.41-10.38-2.11-15.82-2.11-8.65,0-16.31,1.92-22.97,5.76-6.66,3.84-11.84,9.14-15.53,15.9-3.7,6.76-5.54,14.61-5.54,23.55s1.85,17.06,5.54,23.77c3.69,6.71,8.87,11.91,15.53,15.6,6.66,3.7,14.51,5.54,23.55,5.54,5.35,0,10.98-.73,16.92-2.19,5.93-1.46,11.71-3.5,17.35-6.12l1.46,11.67c-11.47,5.74-23.62,8.6-36.46,8.6-8.46,0-16.21-1.39-23.26-4.16-7.05-2.77-13.15-6.66-18.3-11.67-5.15-5.01-9.14-10.94-11.96-17.79-2.82-6.85-4.23-14.36-4.23-22.53s1.43-16.24,4.3-23.33Z"/>
    <path class="cls-1" d="M1129.6,517.48h68.25v11.23h-55.12v37.04h49.29v11.23h-49.29v40.1h57.31v11.23h-70.43v-110.83Z"/>
    <path class="cls-1" d="M1299.63,615.55c-3.21,4.81-7.73,8.53-13.56,11.16-5.83,2.62-12.78,3.94-20.85,3.94-4.18,0-8.46-.39-12.83-1.17-4.38-.78-8.53-1.82-12.47-3.14-3.94-1.31-7.27-2.84-9.99-4.59l1.6-12.1c4.67,2.82,10.01,5.1,16.04,6.85,6.03,1.75,11.71,2.62,17.06,2.62,8.17,0,14.63-1.75,19.39-5.25,4.76-3.5,7.15-8.26,7.15-14.29,0-3.5-.75-6.46-2.26-8.9-1.51-2.43-4.16-4.67-7.95-6.71s-9.09-4.18-15.9-6.42c-8.26-2.72-14.83-5.54-19.69-8.46-4.86-2.92-8.31-6.27-10.35-10.06-2.04-3.79-3.06-8.36-3.06-13.71,0-6.13,1.53-11.45,4.59-15.97,3.06-4.52,7.31-8.02,12.76-10.5,5.44-2.48,11.81-3.72,19.1-3.72,5.35,0,10.79.71,16.33,2.11,5.54,1.41,10.5,3.38,14.87,5.91l-2.19,11.52c-4.28-2.53-8.99-4.5-14.15-5.91-5.15-1.41-10.11-2.11-14.87-2.11-7.39,0-13.17,1.58-17.35,4.74-4.18,3.16-6.27,7.51-6.27,13.05,0,3.31.68,6.1,2.04,8.38,1.36,2.29,3.77,4.38,7.22,6.27,3.45,1.9,8.24,3.91,14.36,6.05,8.94,3.01,16.04,6.08,21.29,9.19,5.25,3.11,9.02,6.61,11.3,10.5,2.28,3.89,3.43,8.46,3.43,13.71,0,6.51-1.6,12.18-4.81,16.99Z"/>
    <path class="cls-1" d="M1378.52,595.86c-2.92-7.05-4.38-14.7-4.38-22.97s1.48-15.75,4.45-22.75c2.96-7,7.15-13.12,12.54-18.37s11.67-9.33,18.81-12.25c7.15-2.92,14.85-4.37,23.11-4.37s16.26,1.44,23.41,4.3c7.15,2.87,13.39,6.9,18.74,12.1,5.35,5.2,9.48,11.3,12.4,18.3,2.92,7,4.38,14.68,4.38,23.04s-1.48,15.75-4.45,22.75c-2.97,7-7.14,13.12-12.54,18.37-5.4,5.25-11.64,9.33-18.74,12.25-7.1,2.92-14.83,4.38-23.19,4.38s-16.28-1.44-23.48-4.3c-7.2-2.87-13.44-6.9-18.74-12.1-5.3-5.2-9.41-11.32-12.32-18.37ZM1467.62,572.89c0-7.19-1.48-13.56-4.45-19.1-2.97-5.54-7.05-9.89-12.25-13.05-5.2-3.16-11.16-4.74-17.86-4.74s-12.66,1.58-17.86,4.74c-5.2,3.16-9.28,7.51-12.25,13.05-2.97,5.54-4.45,11.91-4.45,19.1s1.48,13.44,4.45,19.03c2.96,5.59,7.05,9.97,12.25,13.12,5.2,3.16,11.16,4.74,17.86,4.74s12.66-1.58,17.86-4.74c5.2-3.16,9.28-7.51,12.25-13.05,2.96-5.54,4.45-11.91,4.45-19.1Z"/>
    <path class="cls-1" d="M1520.7,517.48h37.04c8.55,0,15.92,1.46,22.09,4.38,6.17,2.92,10.94,7.07,14.29,12.47,3.35,5.4,5.03,11.84,5.03,19.32,0,6.71-1.68,12.61-5.03,17.72s-7.61,9.21-12.76,12.32l28.73,44.62h-26.1l-22.75-38.79h-18.23v38.79h-22.31v-110.83ZM1554.09,572.02c14.78,0,22.17-6.17,22.17-18.52s-7.2-18.37-21.58-18.37h-11.67v36.89h11.08Z"/>
  </g>
  <g>
    <path class="cls-2" d="M964.94,254.45c-3.24-10.83-8.05-21.38-14.53-31.35-36.31-55.79-110.97-71.56-166.74-35.26-55.79,36.31-71.58,110.97-35.26,166.76,6.46,9.92,14.14,18.59,22.7,25.93.01,0,.03.01.04.03,39.58,33.8,98.16,39.14,144,9.3,45.84-29.84,64.67-85.54,49.79-135.41ZM820.73,342.08c-15.99-24.56-9.03-57.43,15.52-73.42,24.56-15.99,57.43-9.03,73.42,15.52,15.99,24.56,9.05,57.43-15.52,73.42-24.56,15.99-57.43,9.05-73.42-15.52ZM925.82,273.69c-21.79-33.48-66.59-42.95-100.06-21.15-33.49,21.79-42.95,66.59-21.17,100.06,3.33,5.11,7.19,9.67,11.47,13.63-9.1-5.74-17.15-13.51-23.4-23.12-23.26-35.71-13.14-83.51,22.57-106.75,35.71-23.24,83.51-13.14,106.75,22.57,6.26,9.63,10.1,20.13,11.66,30.79-1.89-5.53-4.49-10.91-7.82-16.03ZM764.55,344.14c-30.51-46.88-17.24-109.61,29.63-140.12,46.86-30.52,109.61-17.26,140.12,29.62,7.81,12.01,12.75,25.06,15.01,38.34-2.58-8.14-6.28-16.07-11.16-23.58-29.05-44.62-88.79-57.26-133.43-28.2-44.64,29.05-57.27,88.79-28.2,133.43,4.91,7.55,10.7,14.17,17.15,19.83-11.28-7.43-21.26-17.27-29.11-29.32Z"/>
    <path class="cls-1" d="M1075.73,304.79c28.72-16.97,47.98-48.25,47.98-84.02,0-26.94-10.92-51.33-28.57-68.97-17.65-17.65-42.04-28.57-68.96-28.57,0,0-186.7.01-186.67.03-83.95,1.1-151.62,69.52-151.52,153.71.09,84.75,68.83,153.4,153.56,153.4h.18c70.36-.08,129.63-47.47,147.71-112.06h33.97l68.1,104.66h61.11l-76.89-118.17ZM1026.18,177.16c24.04,0,43.6,19.56,43.6,43.61s-19.56,43.6-43.6,43.6h-31.57c-2.66-33.17-15.84-63.35-36.23-87.21h67.8ZM930.21,365.26c-23.62,23.69-55.06,36.75-88.55,36.79h-.11c-33.42,0-64.86-13.01-88.51-36.64-23.66-23.62-36.7-55.05-36.74-88.47-.04-33.46,12.96-64.93,36.59-88.62,23.63-23.67,55.07-36.74,88.55-36.78h.12c3.13,0,6.22.12,9.29.34,24.86,1.83,47.74,10.97,66.48,25.28,26.94,20.52,45.35,51.72,48.84,87.21.4,4.04.62,8.14.62,12.28.01,14.4-2.39,28.45-7.01,41.65-6.11,17.47-16.12,33.48-29.58,46.96Z"/>
  </g>
</svg>