<svg xmlns="http://www.w3.org/2000/svg" viewBox="0 0 922 279" width="149px" height="45" style="enable-background:new 0 0 922 279" xml:space="preserve"><path d="M6.3 269.1c-5-2.5-5.3-3.9-5.3-13.5 0-17.7 1.4-31.9 1.8-37.6.4-3.9 1.1-5.7 2.8-5.7 2.1 0 2.5 1.1 2.5 3.9 0 3.2 0 8.2 1.1 13.1 5.3 26.3 28.8 36.2 52.5 36.2 34.1 0 50.8-24.5 50.8-47.2 0-24.5-10.3-38.7-40.8-63.9l-16-13.1C18 110.4 9.5 88.4 9.5 64.3 9.5 26.3 37.9.4 83 .4c13.8 0 24.1 1.4 33 3.5 6.7 1.4 9.6 1.8 12.4 1.8 2.9 0 3.5.7 3.5 2.5s-1.4 13.5-1.4 37.6c0 5.7-.7 8.2-2.5 8.2-2.1 0-2.5-1.8-2.8-4.6-.4-4.3-2.5-13.8-4.6-17.8-2.1-3.9-11.7-18.8-44.4-18.8-24.5 0-43.7 15.3-43.7 41.2 0 20.2 9.2 33 43.3 59.6l10 7.8c41.9 33 51.8 55 51.8 83.4 0 14.6-5.7 41.5-30.2 58.9-15.3 10.6-34.4 14.9-53.6 14.9-16.6 0-32.9-2.4-47.5-9.5zM262.5 186c0 29.1 0 52.9 1.4 65.3 1.1 8.9 2.5 14.5 12.1 16 4.3.7 11.4 1.4 14.2 1.4 2.1 0 2.5 1.4 2.5 2.5 0 1.4-1.4 2.5-5 2.5-17 0-36.9-1.1-38.7-1.1-1.4 0-23.1 1.1-32.3 1.1-3.6 0-5-.7-5-2.5 0-1.1.7-2.1 2.5-2.1 2.8 0 6.4-.7 9.2-1.4 6.4-1.4 8.2-7.5 9.2-16.3 1.4-12.4 1.4-36.2 1.4-65.3V59.3l-44.9.7c-19.5.4-27 2.5-31.6 9.6-3.5 5.3-3.9 7.5-5 9.6-.7 2.5-1.8 2.8-3.2 2.8-.7 0-2.1-.7-2.1-2.5 0-3.2 6.4-30.2 6.7-32.7.7-1.8 2.1-5.7 3.2-5.7 2.1 0 5.3 2.5 13.9 3.6 8.9 1.1 20.9 1.4 24.5 1.4h117.9c10.3 0 17.4-.7 22.4-1.4 4.6-.7 7.5-1.4 8.9-1.4s1.4 1.8 1.4 3.5c0 9.2-1.1 30.9-1.1 34.4 0 2.5-1.4 3.9-2.8 3.9s-2.1-1.1-2.5-5.3l-.4-3.2c-1.1-9.2-7.8-16-37.6-16.7l-39-.7V186h-.2zm148 0c0 29.1 0 52.9 1.4 65.3 1.1 8.9 2.1 14.5 11.4 16 4.6.7 11.4 1.4 14.2 1.4 1.8 0 2.5 1.4 2.5 2.5 0 1.4-1.4 2.5-5 2.5-17.4 0-37.6-1.1-39-1.1-1.8 0-21.3 1.1-30.9 1.1-3.2 0-5-.7-5-2.5 0-1.1.7-2.5 2.5-2.5 2.8 0 6.7-.7 9.6-1.4 6-1.4 7.1-7.1 8.2-16 1.4-12.4 1.8-36.2 1.8-65.3v-53.2c0-46.9 0-55.4-.7-65-.7-10.3-3.2-14.9-10-16.3-3.5-.7-7.5-1.1-9.6-1.1-1.4 0-2.5-1.4-2.5-2.5 0-1.8 1.4-2.5 5-2.5 10.3 0 29.8.7 31.6.7 1.4 0 21.7-.7 31.2-.7 3.5 0 5 .7 5 2.5 0 1.1-1.4 2.5-2.5 2.5-2.1 0-4.3 0-7.8.7-8.5 1.8-10.3 6-11 16.7-.4 9.6-.4 18.1-.4 65V186zm72.2-53.2c0-46.9 0-55.4-.7-65-.7-10.3-2.5-15.3-12.8-16.7-2.5-.4-7.8-.7-10.6-.7-1.1 0-2.5-1.4-2.5-2.5 0-1.8 1.4-2.5 5-2.5 14.2 0 33.7.7 35.5.7 6 0 73.8.4 80.9 0 6-.4 11.4-.4 14.2-1.4 1.8-.4 3.2-1.8 4.3-1.8 1.4 0 2.1 1.4 2.1 2.8 0 2.1-1.4 5.7-2.5 14.2-.3 2.8-.7 16.3-1.4 19.9-.3 1.4-1.4 3.2-2.8 3.2s-2.5-1.4-2.5-3.5c0-2.5-1.1-7.5-2.8-11.4-1.8-3.9-9.2-8.9-21.3-8.9l-51.1-.7c-1.8 0-2.5.7-2.5 3.2V144c0 1.8 0 2.8 2.1 2.8l42.6-.4c5.3 0 9.9 0 14.2-.4 7.5-.7 11.7-1.8 14.6-5.3 1.4-1.8 2.8-3.2 3.9-3.2 1.4 0 1.8 1.1 1.8 2.5 0 1.8-2.1 6.7-2.8 16.7-.7 6-1.1 18.1-1.1 20.2 0 2.8-.7 6-2.8 6-1.8 0-2.1-1.4-2.1-2.9-.4-3.2-.7-7.5-2.1-11-1.4-4.3-6.4-8.2-16-9.6-7.8-1.1-44.7-.7-50.1-.7-1.8 0-2.1.7-2.1 2.8V186c0 29.8 0 53.6 1.4 65.3 1.1 8.9 2.9 14.5 11.4 16 4.6.7 11.4 1.4 14.2 1.4 1.8 0 2.5 1.4 2.5 2.5 0 1.4-1.4 2.5-5 2.5-17.4 0-37.6-1.1-39.1-1.1-1.8 0-21.3 1.1-30.9 1.1-3.2 0-5-.7-5-2.5 0-1.1.7-2.5 2.5-2.5 2.8 0 6.7-1.1 9.6-1.4 6.1-1.1 6.7-7.1 8.2-16 1.8-12.4 1.8-36.2 1.8-65.3v-53.2h-.2zm157 0c0-46.9 0-55.4-.7-65-.7-10.3-2.5-15.3-12.8-16.7-2.5-.4-7.8-.7-10.6-.7-1.1 0-2.5-1.4-2.5-2.5 0-1.8 1.4-2.5 5-2.5 14.2 0 34.4.7 36.2.7 2.1 0 67.4.4 74.5 0 6-.4 11.7-1.4 14.2-1.8 1.4-.4 2.8-1.4 4.3-1.4 1.1 0 1.4 1.4 1.4 2.8 0 2.1-1.8 5.7-2.5 14.2-.3 2.8-1.1 16.3-1.8 19.9-.4 1.4-1.4 3.2-2.8 3.2-1.8 0-2.5-1.4-2.5-3.9 0-2.1-.4-7.1-1.8-10.7-2.1-5-5.3-7.1-22.4-9.2-5.3-.7-41.5-1.1-45.1-1.1-1.4 0-1.8 1.1-1.8 3.2v82c0 2.1 0 3.2 1.8 3.2 3.9 0 45.1 0 52.2-.7 7.4-.7 12.1-1.1 15.3-4.3 2.1-2.1 3.5-3.9 4.6-3.9s1.8.7 1.8 2.5-1.8 6.7-2.5 16.7c-.7 6-1.4 17.4-1.4 19.5 0 2.5-.7 5.7-2.8 5.7-1.4 0-2.1-1.1-2.1-2.8 0-2.8 0-6-1.4-9.9-1.1-4.3-3.9-7.8-16-9.2-8.5-1.1-41.9-1.4-47.2-1.4-1.8 0-2.1 1.1-2.1 2.1V186c0 10.3-.4 45.4 0 51.5.7 20.2 6.4 24.1 37.3 24.1 8.2 0 23.1 0 31.2-3.2 8.2-3.5 12.4-8.9 14.2-20.9.7-3.6 1.4-4.6 3.2-4.6s2.1 2.5 2.1 4.6-2.5 22.7-4.3 29.1c-2.1 7.8-5.3 7.8-17.4 7.8-23.4 0-41.5-.7-54.3-1.1-13.1-.7-21.3-.7-25.9-.7-.7 0-6.8 0-13.5.4-6 .4-13.1.7-18.1.7-3.2 0-5-.7-5-2.5 0-1.1.7-2.5 2.5-2.5 2.8 0 6.7-1.1 9.6-1.4 6-1.1 6.7-7.1 8.2-16 1.8-12.4 1.8-36.2 1.8-65.3v-53.2h-.1zm183 53.9c0 44.4.7 62.5 6.4 67.8 5 5 17 7.1 41.5 7.1 16.3 0 30.2-.4 37.6-9.2 3.9-4.6 6.4-11 7.5-17 .3-2.1 1.4-3.9 3.2-3.9 1.4 0 2.1 1.4 2.1 4.6 0 3.2-2.1 21.3-4.6 30.2-2.1 7.1-3.2 8.2-19.9 8.2-22.4 0-39.8-.4-54.3-1.1-14.2-.3-24.8-.7-34.1-.7-1.4 0-6.8 0-12.8.4-6.4.3-13.1.7-18.1.7-3.2 0-5-.7-5-2.5 0-1.1.7-2.5 2.5-2.5 2.8 0 6.7-.7 9.6-1.4 6-1.4 6.8-7.1 8.2-16 1.8-12.4 1.8-36.2 1.8-65.3v-53.2c0-46.9 0-55.4-.7-65-.7-10.3-2.5-15.3-12.8-16.7-2.5-.4-7.8-.7-10.7-.7-1.1 0-2.5-1.4-2.5-2.5 0-1.8 1.4-2.5 5-2.5 14.2 0 33.7.7 35.5.7 1.4 0 24.8-.7 34.4-.7 3.2 0 5 .7 5 2.5 0 1.1-1.4 2.1-2.5 2.1-2.1 0-6.7.4-10.3.7-9.2 1.8-11 6.4-11.7 17-.4 9.6-.4 18.1-.4 65l.1 53.9z" style="fill:#003057"/></svg>