<?xml version="1.0" encoding="UTF-8"?><svg id="Layer_1" xmlns="http://www.w3.org/2000/svg" viewBox="0 0 562.22 121.51"><path d="M111.5,120.69h12.82l-.27-.41-.89-.07c-3.09-.21-3.5-.27-3.5-.82v-21.39c2.67-2.54,5.76-4.32,9.12-4.32,3.84,0,6.03,2.19,6.03,6.24v19.33c0,.55-.48,.82-2.88,.96l-1.23,.07-.21,.41h12.68l-.21-.41-1.03-.07c-3.36-.27-3.36-.48-3.36-.89v-20.23c0-3.02-.82-4.94-2.26-6.44-1.17-1.23-2.88-1.85-4.94-1.85-4.87,0-9.19,4.25-11.72,6.51l-.14-.21,.21-6.17-8.23,2.13-.07,.27,1.58,.21c2.33,.21,2.81,1.17,2.81,5.42v20.29c0,.82-.75,.82-2.88,.96l-1.23,.07-.21,.41Z" style="fill:#fff;"/><path d="M171.91,121.51c5.48,0,8.91-3.22,11.79-8.09l-.48-.21c-2.61,3.98-5.21,5.62-9.67,5.62-6.1,0-10.97-5.83-10.97-14.06,0-1.23,.21-2.67,.34-3.77l19.95,.07c.07-.55,.14-.69,.14-1.03,0-4.66-3.7-9.26-10.56-9.26-8.57,0-14.06,7.34-14.06,15.97,0,8.09,6.03,14.74,13.51,14.74Zm-8.84-21.19c1.37-5.14,5.21-8.84,8.98-8.84,4.32,0,6.51,3.98,6.51,8.78l-15.49,.07Z" style="fill:#fff;"/><path d="M209.14,121.51c3.63,0,5.76-2.47,8.5-5.21l-.41-.14c-1.71,1.37-3.22,3.22-5.9,3.22-2.06,0-4.18-1.17-4.05-4.66l.48-20.91h8.57l.69-2.06h-9.26l.07-5.96h-3.77l-.14,5.9h-4.66l-.69,2.06,5.28,.07-.48,21.67c-.07,5.42,3.63,6.03,5.76,6.03Z" style="fill:#fff;"/><path d="M245.82,121.38h.48l9.05-21.25,9.12,21.25h.48l6.86-20.43c2.47-7.4,3.22-8.36,6.38-8.71l.27-.07,.21-.41h-10.97l.21,.41,.82,.07c4.66,.41,4.73,1.51,2.61,7.88l-5.14,15.36-8.23-19.68c-.96-2.61-.75-3.43,1.92-3.57l1.17-.07,.14-.41h-12.89l.27,.41,1.23,.07c2.19,.21,2.61,.48,4.04,4.18l1.1,2.88-6.79,15.97-7.27-19.47c-1.03-2.61-.55-3.43,2.19-3.57l1.03-.07,.27-.41h-12.89l.07,.41,1.23,.07c2.19,.14,2.47,.55,3.84,4.59l9.19,24.54Z" style="fill:#fff;"/><path d="M306.98,121.51c8.16,0,14.81-6.79,14.81-15.56s-6.58-15.15-14.81-15.15-14.95,6.99-14.95,15.56,6.58,15.15,14.95,15.15Zm.07-.41c-2.47,0-4.8-.89-6.31-2.4-2.74-2.74-4.25-7.75-4.25-13.37,0-7.88,4.59-13.99,10.35-13.99,2.54,0,4.8,.96,6.51,2.74,2.67,2.67,3.84,7.4,3.84,12.62,0,8.09-4.53,14.4-10.15,14.4Z" style="fill:#fff;"/><path d="M337.69,120.69h13.58l-.21-.41-2.26-.07c-3.02-.07-2.95-.27-2.95-.82v-15.01c2.06-7.68,3.57-10.7,6.86-11.38,.14,2.67,1.51,3.98,3.02,3.98,1.78,0,2.81-1.58,2.81-3.02,0-1.58-1.23-3.15-3.63-3.15-4.32,0-7.34,4.87-9.19,12.14h-.07l.27-12-8.23,2.13-.07,.27,1.58,.21c2.33,.21,2.81,1.17,2.81,5.42v20.29c0,.82-.75,.82-2.88,.96l-1.23,.07-.21,.41Z" style="fill:#fff;"/><path d="M372.39,120.69h12.55l-.21-.41-.96-.07c-2.95-.21-3.36-.27-3.36-.82v-11.11l3.77-3.7,9.19,15.29,.34,.82h8.43l-.21-.41-.75-.07c-2.95-.27-3.36-.82-5.28-3.98l-8.84-14.4c-.07-.07,1.3-1.44,1.3-1.44,5.48-5.48,6.99-7.82,10.15-8.09l1.51-.14,.21-.41h-12.75l.14,.41,.89,.07c2.4,.21,3.57,.75,3.57,1.85,0,1.3-2.33,4.05-4.73,6.51l-6.92,6.86v-32.91l-8.09,1.92-.07,.27,1.58,.14c2.4,.21,2.74,1.17,2.74,4.87v37.5c0,.82-.75,.82-2.81,.96l-1.17,.07-.21,.41Z" style="fill:#fff;"/><path d="M425.45,121.51c6.03,0,10.7-3.98,10.7-8.98,0-6.1-4.66-7.61-8.98-9.12-4.05-1.44-6.86-2.81-6.86-6.58,0-3.43,2.26-5.48,6.03-5.48,2.26,0,3.63,1.03,4.73,1.78l3.15,5.28,.48-.07-.34-6.92-2.19,.75c-1.78-.89-3.7-1.37-5.83-1.37-4.87,0-9.19,3.63-9.19,8.3s4.18,6.92,7.68,8.02c5.14,1.58,7.95,3.5,7.95,7.54,0,3.77-2.81,6.38-6.99,6.38-2.81,0-5.96-1.85-7.82-5.55l-1.44-3.09h-.41l.89,7.54c2.54,1.1,5.35,1.58,8.43,1.58Z" style="fill:#fff;"/><path d="M71.76,.69V0h-15.59l-19.04,48.24L16.97,0H0V.69C5.17,.69,6.98,4.82,6.98,9.3V51c0,4.48-1.81,8.61-6.98,8.61v.69H15.16v-.69c-5.17,0-6.98-4.13-6.98-8.61V4.48l23.95,56.51h1.29L55.65,4.57V51c0,4.48-1.81,8.61-6.98,8.61v.69h23.09v-.69c-5.17,0-6.98-4.13-6.98-8.61V9.3c0-4.48,1.81-8.61,6.98-8.61Z" style="fill:#fff;"/><path d="M109.02,60.95c19.53,0,31.73-12.85,31.73-29.21S128.55,2.7,109.02,2.7s-31.73,12.61-31.73,28.8,12.2,29.45,31.73,29.45Zm0-.98c-13.02,0-21.97-13.75-21.97-28.48S96,3.67,109.02,3.67s21.97,13.26,21.97,27.83-8.95,28.48-21.97,28.48Z" style="fill:#fff;"/><path d="M205.03,3.35h-14.32v.65c4.88,0,6.59,3.91,6.59,8.14V45.09L162.4,3.35h-16.03v.65c4.88,0,6.59,3.91,6.59,8.14V51.52c0,4.23-1.71,8.14-6.59,8.14v.65h14.32v-.65c-4.88,0-6.59-3.91-6.59-8.14V8.15l43.2,52.8h1.14V12.14c0-4.23,1.71-8.14,6.59-8.14v-.65Z" style="fill:#fff;"/><path d="M257.26,51.11c-1.79,4.23-4.72,8.22-11.47,8.22h-13.42c-3.42,0-5.61-3.25-5.61-7.16V27.11h7.65c4.23,0,8.14,1.71,8.14,6.59h.65v-14.16h-.65c0,4.88-3.91,6.59-8.14,6.59h-7.65V4.33h16.6c6.75,0,8.87,3.99,10.66,8.22h.65l-.89-9.19h-42.23v.65c4.88,0,6.59,3.91,6.59,8.14V51.52c0,4.23-1.71,8.14-6.59,8.14v.65h44.67l1.71-9.19h-.65Z" style="fill:#fff;"/><path d="M318.94,3.35h-13.02v.65c4.88,0,4.23,3.25,2.03,6.83l-13.34,21.97h-.49l-12.85-21.89c-2.2-3.66-2.77-6.92,2.12-6.92v-.65h-20.99v.65c3.91,0,7.57,3.25,9.76,6.92l14.81,25.38v15.21c0,4.23-1.71,8.14-6.59,8.14v.65h21.8v-.65c-4.88,0-6.59-3.91-6.59-8.14v-18.47l13.51-22.21c2.2-3.58,5.94-6.83,9.84-6.83v-.65Z" style="fill:#fff;"/><path d="M377.58,24.98c8.18-1.98,10.77-7.15,10.77-12.15,0-6.2-4.22-12.84-18.87-12.84h-35.66V.69c5.17,0,6.98,4.13,6.98,8.61V51c0,4.48-1.81,8.61-6.98,8.61v.69h38.77c17.23,0,24.12-9.22,24.12-18.18,0-8.27-6.89-15.76-19.12-17.14Zm-11.54-23.95c9.48,0,12.84,6.37,12.84,11.8,0,4.74-1.64,11.97-9.39,11.97h-19.56V1.03h16.11Zm3.1,58.23h-13.27c-3.62,0-5.94-3.45-5.94-7.58V25.84h21.79c10.34,0,14.64,8.27,14.64,16.28,0,8.96-4.31,17.14-17.23,17.14Z" style="fill:#fff;"/><path d="M454.5,52.25L432.21,1.72h-1.38l-22.21,50.53c-1.63,3.91-4.72,7.4-8.14,7.4v.65h11.72v-.65c-4.39,0-4.07-3.5-2.44-7.4l4.72-10.82h24.9l4.88,10.82c1.71,3.91,2.03,7.4-2.36,7.4v.65h20.83v-.65c-3.42,0-6.51-3.5-8.22-7.4Zm-39.54-11.8l11.88-27.01,12.12,27.01h-24Z" style="fill:#fff;"/><path d="M511.94,51.11c-1.79,4.23-3.91,8.22-10.66,8.22h-11.8c-3.42,0-5.61-3.25-5.61-7.16V12.14c0-4.23,1.71-8.14,6.59-8.14v-.65h-21.8v.65c4.88,0,6.59,3.91,6.59,8.14V51.52c0,4.23-1.71,8.14-6.59,8.14v.65h43.04l.89-9.19h-.65Z" style="fill:#fff;"/><path d="M561.57,51.11c-1.79,4.23-3.91,8.22-10.66,8.22h-11.8c-3.42,0-5.61-3.25-5.61-7.16V12.14c0-4.23,1.71-8.14,6.59-8.14v-.65h-21.8v.65c4.88,0,6.59,3.91,6.59,8.14V51.52c0,4.23-1.71,8.14-6.59,8.14v.65h43.04l.89-9.19h-.65Z" style="fill:#fff;"/></svg>