<svg xmlns="http://www.w3.org/2000/svg" viewBox="0 0 128 128" width="128" height="128">
  <rect width="128" height="128" rx="28" fill="#0d1117"/>
  <rect x="4" y="4" width="120" height="120" rx="24" fill="none" stroke="#C6112F" stroke-width="4" opacity="0.85"/>
  <g transform="translate(18, 26)">
    <!-- Stylized "GO" Icon -->
    <path d="M 46 16 C 36 6, 18 6, 8 16 C -2 26, -2 46, 8 56 C 18 66, 36 66, 46 56 C 50 52, 52 48, 52 42 L 26 42 L 26 34 L 59 34 C 60 44, 56 56, 48 64 C 35 77, 13 77, 0 64 C -12 51, -12 29, 0 16 C 13 3, 35 3, 48 16 Z" fill="#ffffff"/>
    <circle cx="76" cy="38" r="18" fill="none" stroke="#C6112F" stroke-width="8"/>
  </g>
  <text x="64" y="110" text-anchor="middle" fill="#ffffff" font-family="-apple-system, BlinkMacSystemFont, 'Segoe UI', Roboto, sans-serif" font-size="14" font-weight="900" letter-spacing="2">METALS</text>
</svg>
