<svg width="650" height="143" viewBox="0 0 650 143" fill="none" xmlns="http://www.w3.org/2000/svg">
<path d="M162.172 90.2582L162.033 90.9264C157.234 116.571 139.7 134.658 113.866 142.515C110.687 128.213 98.0254 117.166 82.0086 117.166C66.0137 117.166 53.3646 128.183 50.1639 142.454C24.4568 134.573 7.00554 116.534 2.20383 90.9851C1.0367 85.5098 0.432617 79.6962 0.432617 73.5734C0.432617 67.4832 1.03029 61.7037 2.18587 56.2625C8.72597 21.2229 39.0705 0.517578 81.8819 0.517578L82.1116 0.519012L82.3435 0.517578C125.178 0.517578 155.533 21.2455 162.051 56.3203C162.879 60.2292 163.418 64.3129 163.655 68.5609L113.986 68.562C110.963 53.7722 97.7948 42.6405 82.0086 42.6405C63.9873 42.6405 49.3782 57.1474 49.3782 75.0427C49.3782 92.9379 63.9873 107.445 82.0086 107.445C98.3662 107.445 111.913 95.4928 114.274 79.9035L163.571 79.9047C163.318 83.4749 162.848 86.9282 162.172 90.2582Z" fill="black"/>
<path d="M228.713 66.6123C234.606 66.6123 239.789 65.6829 244.261 63.824C248.733 61.9651 252.251 59.039 254.817 55.0458C256.134 53.118 257.139 50.8632 257.833 48.2814C258.526 45.6996 258.942 42.8596 259.081 39.7614V39.2451H239.425V39.4516C239.147 43.2383 238.09 46.0094 236.253 47.765C234.415 49.5207 231.937 50.3985 228.817 50.3985C225.419 50.3985 222.698 49.2109 220.653 46.8356C218.607 44.4603 217.585 40.9663 217.585 36.3534V34.7011C217.585 29.6751 218.607 25.9401 220.653 23.496C222.698 21.0518 225.454 19.8298 228.921 19.8298C232.041 19.8298 234.485 20.6732 236.253 22.36C238.021 24.0467 239.043 26.7146 239.321 30.3636V30.7767H258.977V30.4669C258.769 24.3394 257.365 19.3306 254.765 15.4407C252.165 11.5508 248.646 8.6419 244.209 6.71414C241.99 5.81911 239.598 5.13063 237.033 4.64869C234.467 4.16675 231.729 3.92578 228.817 3.92578C222.923 3.92578 217.689 5.07899 213.113 7.38542C208.537 9.69184 204.931 13.1171 202.297 17.6611C200.979 19.9331 199.991 22.4977 199.333 25.3549C198.674 28.2121 198.345 31.3275 198.345 34.7011V36.56C198.345 46.543 200.979 54.0475 206.249 59.0734C211.518 64.0994 219.006 66.6123 228.713 66.6123ZM284.67 65.0632V38.5221C284.67 34.942 285.052 32.102 285.814 30.0021C286.577 27.9023 287.929 26.4048 289.87 25.5098C290.91 25.0278 292.141 24.6664 293.562 24.4254C294.984 24.1844 296.596 24.064 298.398 24.064H305.47V4.33887H302.038C296.63 4.33887 292.366 5.35439 289.246 7.38542C286.126 9.41645 284.081 12.7728 283.11 17.4545L280.51 5.16505H265.326V65.0632H284.67ZM331.788 66.1992C336.295 66.1992 340.039 65.1837 343.02 63.1527C346.002 61.1217 348.255 58.3849 349.78 54.9425L351.548 65.0632H367.564V5.16505H348.324V36.3534C348.324 40.3466 347.631 43.5997 346.244 46.1127C344.858 48.6257 342.5 49.8821 339.172 49.8821C335.775 49.8821 333.522 48.7634 332.412 46.5258C331.303 44.2882 330.748 41.3449 330.748 37.696V5.16505H311.82V43.2727C311.82 50.5706 313.467 56.2162 316.76 60.2094C320.054 64.2026 325.063 66.1992 331.788 66.1992ZM393.674 5.16505L403.554 20.3461L413.434 5.16505H434.754L414.682 33.6683L436.106 65.0632H414.474L403.45 48.1265L392.426 65.0632H370.17L392.426 33.8749L372.25 5.16505H393.674ZM240.106 138.215V78.6264C239.76 78.8329 238.997 79.0395 237.818 79.246C236.64 79.4526 235.357 79.5903 233.97 79.6591C233.277 79.728 232.636 79.7796 232.047 79.814C231.457 79.8484 230.885 79.8657 230.33 79.8657C229.29 79.8657 228.06 79.814 226.638 79.7107C225.217 79.6075 223.917 79.487 222.739 79.3493C222.115 79.2804 221.629 79.1944 221.282 79.0911C220.936 78.9878 220.659 78.8674 220.451 78.7297V138.215H240.106ZM269.024 138.215V106.923C269.024 102.792 269.77 99.4875 271.26 97.0089C272.751 94.5304 275.299 93.2911 278.904 93.2911C282.371 93.2911 284.711 94.3927 285.924 96.5958C287.138 98.799 287.744 101.759 287.744 105.477V138.215H306.88V100.107C306.88 92.878 305.147 87.2324 301.68 83.1704C298.214 79.1083 293.118 77.0773 286.392 77.0773C281.747 77.0773 277.864 78.11 274.744 80.1755C271.624 82.2409 269.267 84.9949 267.672 88.4373L265.904 78.3166H249.784V138.215H269.024ZM348.59 138.215L371.99 78.3166H352.438L340.166 114.669L328.102 78.3166H308.654L331.118 138.215H348.59ZM401.22 139.764C410.025 139.764 416.854 137.905 421.708 134.187C426.561 130.469 429.82 125.478 431.484 119.213H411.412C410.718 120.934 409.592 122.311 408.032 123.343C406.472 124.376 404.374 124.893 401.74 124.893C398.065 124.893 395.205 123.963 393.16 122.104C391.114 120.245 389.849 117.457 389.364 113.739H431.9V107.026C431.9 101.587 430.842 96.6131 428.728 92.1035C426.613 87.5939 423.337 83.9621 418.9 81.2082C416.681 79.8312 414.116 78.7985 411.204 78.11C408.292 77.4215 405.068 77.0773 401.532 77.0773C395.292 77.0773 389.849 78.3166 385.204 80.7951C380.558 83.2737 376.953 86.8194 374.388 91.4322C373.07 93.7042 372.1 96.2172 371.476 98.9711C370.852 101.725 370.54 104.72 370.54 107.956V109.711C370.54 118.937 373.036 126.252 378.028 131.657C383.02 137.062 390.75 139.764 401.22 139.764ZM413.18 101.966H389.364C389.988 98.3859 391.34 95.718 393.42 93.9624C395.5 92.2067 398.273 91.3289 401.74 91.3289C405.276 91.3289 407.962 92.2584 409.8 94.1173C411.637 95.9762 412.764 98.5924 413.18 101.966ZM465.082 139.867C471.322 139.867 476.504 138.955 480.63 137.13C484.755 135.306 487.858 132.845 489.938 129.746C490.908 128.163 491.654 126.476 492.174 124.686C492.694 122.896 492.954 121.003 492.954 119.006C492.954 115.495 492.26 112.655 490.874 110.486C489.487 108.317 487.684 106.613 485.466 105.374C483.178 104.135 480.699 103.205 478.03 102.586C475.36 101.966 472.708 101.484 470.074 101.14C465.636 100.589 462.187 100.004 459.726 99.3842C457.264 98.7646 456.034 97.5253 456.034 95.6664C456.034 94.2206 456.623 93.0157 457.802 92.0518C458.98 91.088 461.026 90.606 463.938 90.606C466.711 90.606 468.912 91.1396 470.542 92.2067C472.171 93.2739 473.194 94.8746 473.61 97.0089H492.226C491.324 91.0191 488.69 86.1825 484.322 82.4991C479.954 78.8157 473.228 76.974 464.146 76.974C455.618 76.974 449.1 78.8157 444.594 82.4991C440.087 86.1825 437.834 90.9503 437.834 96.8024C437.834 100.382 438.51 103.274 439.862 105.477C441.214 107.68 443.034 109.367 445.322 110.538C447.54 111.777 449.984 112.689 452.654 113.274C455.323 113.86 457.94 114.324 460.506 114.669C463.002 114.944 465.324 115.254 467.474 115.598C469.623 115.942 471.322 116.459 472.57 117.147C473.263 117.491 473.766 117.922 474.078 118.438C474.39 118.954 474.546 119.557 474.546 120.245C474.546 121.898 473.87 123.189 472.518 124.118C471.166 125.047 468.999 125.512 466.018 125.512C462.898 125.512 460.419 124.893 458.582 123.653C456.744 122.414 455.514 120.59 454.89 118.18H435.338C436.308 125.065 439.255 130.4 444.178 134.187C449.1 137.974 456.068 139.867 465.082 139.867ZM537.367 138.215V120.762H533.519C530.538 120.762 528.302 120.521 526.811 120.039C525.321 119.557 524.298 118.524 523.743 116.941C523.535 116.114 523.362 115.064 523.223 113.791C523.085 112.517 523.015 111.02 523.015 109.298V94.9435H537.367V78.3166H523.015V63.342H507.415C507.346 64.5813 507.259 65.9411 507.155 67.4213C507.051 68.9015 506.93 70.2613 506.791 71.5006C506.514 74.048 505.942 75.8208 505.075 76.8191C504.209 77.8174 502.805 78.4543 500.863 78.7297C499.823 78.9362 498.87 79.0911 498.003 79.1944C497.137 79.2977 496.114 79.3493 494.935 79.3493V94.9435H505.127V113.016C505.127 119.213 505.751 124.152 506.999 127.836C508.247 131.519 510.501 134.187 513.759 135.839C515.423 136.597 517.417 137.182 519.739 137.595C522.062 138.008 524.749 138.215 527.799 138.215H537.367ZM571.589 139.764C577.76 139.764 583.116 138.645 587.657 136.407C592.198 134.17 595.752 130.814 598.317 126.338C599.565 124.135 600.501 121.639 601.125 118.851C601.749 116.063 602.061 113.016 602.061 109.711V107.853C602.061 101.174 600.796 95.5459 598.265 90.9675C595.734 86.3891 592.181 82.9294 587.605 80.5886C585.317 79.4181 582.856 78.5403 580.221 77.9551C577.586 77.3699 574.744 77.0773 571.693 77.0773C565.8 77.0773 560.548 78.2305 555.937 80.5369C551.326 82.8434 547.738 86.2686 545.173 90.8126C543.856 93.0846 542.868 95.6492 542.209 98.5064C541.55 101.364 541.221 104.479 541.221 107.853V109.711C541.221 119.694 543.838 127.199 549.073 132.225C554.308 137.251 561.813 139.764 571.589 139.764ZM571.693 123.55C568.226 123.55 565.418 122.362 563.269 119.987C561.12 117.612 560.045 114.118 560.045 109.505V107.853C560.045 102.827 561.12 99.0916 563.269 96.6475C565.418 94.2033 568.261 92.9813 571.797 92.9813C575.472 92.9813 578.297 94.2378 580.273 96.7507C582.249 99.2637 583.237 102.964 583.237 107.853V109.505C583.237 114.187 582.162 117.698 580.013 120.039C577.933 122.38 575.16 123.55 571.693 123.55ZM628.795 138.215V111.674C628.795 108.094 629.176 105.254 629.939 103.154C630.702 101.054 632.054 99.5563 633.995 98.6613C635.035 98.1794 636.266 97.8179 637.687 97.5769C639.108 97.336 640.72 97.2155 642.523 97.2155H649.595V77.4904H646.163C640.755 77.4904 636.491 78.5059 633.371 80.5369C630.251 82.568 628.206 85.9243 627.235 90.606L624.635 78.3166H609.451V138.215H628.795Z" fill="black"/>
</svg>
