<?xml version="1.0" encoding="UTF-8"?>
<svg id="logo" xmlns="http://www.w3.org/2000/svg" version="1.1" viewBox="0 0 524.48 157.62">
  <!-- Generator: Adobe Illustrator 29.8.7, SVG Export Plug-In . SVG Version: 2.1.1 Build 1)  -->
  <defs>
    <style>
      .st0 {
        fill: #de161d;
      }
    </style>
  </defs>
  <path class="st0" d="M72.78,24.27c-2,.46-3.44.78-4.9.23-1.12-.44-2-1.67-2.79-2.8L51.52,3.11c-.79-1.11-1.72-2.35-2.83-2.81-1.45-.57-2.91-.22-4.91.23L0,12.27v81.57l43.93-11.75c2.02-.44,3.47-.79,4.92-.23,1.1.46,2,1.67,2.78,2.79l13.52,18.57c.79,1.12,1.69,2.31,2.8,2.78,1.45.54,2.9.23,4.9-.25l43.82-11.71V12.5l-43.89,11.77Z"/>
  <rect x="144.93" y="110.27" width="379.54" height="2.25"/>
  <g>
    <path d="M143.75,142.87c0-8.89,5.42-14.86,13.42-14.86,6.55,0,11.08,3.86,12.17,10.18h-4.37c-1.17-4.06-3.67-6.24-7.92-6.24-5.62,0-8.85,4.13-8.85,10.92s3.24,10.8,8.93,10.8c4.25,0,6.83-2.18,7.92-6.4h4.37c-.94,6.32-5.46,10.33-12.17,10.33-8.31,0-13.49-6.04-13.49-14.74Z"/>
    <path d="M181.03,128.6h4.91l10.37,28.43h-4.52l-2.5-7.14h-11.66l-2.54,7.14h-4.45l10.37-28.43ZM188.01,146.23l-4.52-12.95-4.56,12.95h9.09Z"/>
    <path d="M199.52,128.6h9.95c5.5,0,8.66,3.51,8.66,8.62s-3.16,8.58-8.66,8.58h-5.69v11.23h-4.25v-28.43ZM213.71,137.22c0-3.16-1.72-4.8-5.27-4.8h-4.68v9.56h4.68c3.55,0,5.27-1.64,5.27-4.76Z"/>
    <path d="M222.64,128.6h4.25v28.43h-4.25v-28.43Z"/>
    <path d="M238.75,132.42h-7.72v-3.82h19.66v3.82h-7.68v24.61h-4.25v-24.61Z"/>
    <path d="M259.5,128.6h4.91l10.37,28.43h-4.52l-2.5-7.14h-11.66l-2.54,7.14h-4.45l10.37-28.43ZM266.48,146.23l-4.52-12.95-4.56,12.95h9.09Z"/>
    <path d="M277.98,128.6h4.25v24.61h12.32v3.82h-16.58v-28.43Z"/>
    <path d="M306.84,128.6h6.44l8.39,23.79,8.39-23.79h6.36v28.43h-4.21v-23.36l-8.42,23.36h-4.33l-8.46-23.4v23.4h-4.13v-28.43Z"/>
    <path d="M349.98,128.6h4.91l10.38,28.43h-4.52l-2.5-7.14h-11.66l-2.54,7.14h-4.45l10.37-28.43ZM356.96,146.23l-4.52-12.95-4.56,12.95h9.09Z"/>
    <path d="M368.46,128.6h10.76c5.66,0,8.7,3.2,8.7,7.84,0,3.32-1.64,5.77-4.06,6.67,2.34.62,3.71,2.5,3.71,5.54v5.3c0,1.33.2,2.26.78,2.96v.12h-4.41c-.51-.47-.7-1.21-.7-2.38v-6.32c0-2.15-1.05-3.12-3.2-3.12h-7.33v11.82h-4.25v-28.43ZM383.52,136.95c0-2.77-1.68-4.52-4.52-4.52h-6.28v9.01h6.28c2.85,0,4.52-1.72,4.52-4.49Z"/>
    <path d="M393.65,128.6h4.25v14.51l11.12-14.51h5.38l-9.01,11.23,10.3,17.2h-5.11l-8.03-13.61-4.64,5.77v7.84h-4.25v-28.43Z"/>
    <path d="M418.85,128.6h17.32v3.82h-13.07v8.19h12.25v3.78h-12.25v8.81h13.65v3.82h-17.9v-28.43Z"/>
    <path d="M447.16,132.42h-7.72v-3.82h19.66v3.82h-7.68v24.61h-4.25v-24.61Z"/>
    <path d="M461.12,147.55h4.21c.16,3.71,2.07,6.36,6.32,6.36,3.43,0,5.42-1.56,5.42-4.41,0-2.18-1.05-3.55-4.29-4.49l-3.78-1.09c-4.49-1.29-6.98-3.67-6.98-7.72,0-4.72,3.74-8.19,9.28-8.19,6.08,0,9.36,3.47,9.44,8.78h-4.21c-.2-3.28-1.95-5.07-5.23-5.07-3.08,0-4.99,1.6-4.99,4.17,0,2.26,1.25,3.24,3.94,4.02l3.94,1.13c5.3,1.52,7.18,4.37,7.18,8.11,0,5.03-3.47,8.46-10.02,8.46s-10.14-3.9-10.22-10.06Z"/>
  </g>
  <g>
    <g>
      <g>
        <polygon points="166.44 15.8 166.44 36.67 166.34 36.67 152.56 12.5 144.92 16.22 144.92 47.21 151.69 47.21 151.69 22.46 151.79 22.46 165.95 47.21 173.21 47.21 173.21 12.5 166.44 15.8"/>
        <path d="M197.4,12.5h-.01l-10.11,4.93-10.62,29.78h7.64l2.42-7.16h12.81l2.22,7.16h7.88l-12.23-34.71ZM188.65,34.06l4.45-13.73h.1l4.3,13.73h-8.85Z"/>
        <path d="M339.25,12.5h-.01l-10.11,4.93-10.62,29.78h7.64l2.42-7.16h12.81l2.22,7.16h7.88l-12.23-34.71ZM330.5,34.06l4.45-13.73h.1l4.3,13.73h-8.85Z"/>
        <polygon points="233.57 12.5 208.89 12.5 205.36 18.61 205.36 18.64 215.85 18.64 215.85 47.21 223.11 47.21 223.11 18.64 230.03 18.64 233.57 12.5"/>
        <polygon points="236.46 16.03 236.46 47.21 243.72 47.21 243.72 12.5 243.7 12.5 236.46 16.03"/>
        <path d="M265.17,11.57c-.32,0-.67.01-1.06.03l-12.01,5.86c-2.13,2.73-3.61,6.67-3.61,12.38,0,16.29,12.09,18.28,16.68,18.28s16.68-1.98,16.68-18.28-12.09-18.28-16.68-18.28ZM265.17,41.98c-3.92,0-9.43-2.42-9.43-12.14s5.51-12.14,9.43-12.14,9.43,2.42,9.43,12.14-5.51,12.14-9.43,12.14Z"/>
        <polygon points="308.15 15.8 308.15 36.67 308.05 36.67 294.27 12.5 286.63 16.22 286.63 47.21 293.4 47.21 293.4 22.46 293.5 22.46 307.66 47.21 314.92 47.21 314.92 12.5 308.15 15.8"/>
        <polygon points="379.56 40.93 362.31 40.93 362.31 12.5 355.06 16.04 355.06 47.21 375.93 47.21 379.56 40.93"/>
      </g>
      <g>
        <path d="M417.16,28.5c1.45-.73,4.25-2.13,4.25-7.11,0-3.58-2.18-8.9-10.69-8.9h-9.56l-7.32,3.57v31.15h14.7c7.11,0,8.99-1.21,10.98-3.14,1.84-1.79,3-4.4,3-7.16,0-3.43-1.11-6.81-5.37-8.41ZM400.82,18.49h8.32c3.29,0,5.32.87,5.32,3.72s-2.27,3.87-5.13,3.87h-8.51v-7.59ZM409.72,41.22h-8.9v-9.28h9.23c2.61,0,5.22,1.16,5.22,4.21,0,3.53-2.03,5.08-5.56,5.08Z"/>
        <polygon points="480.94 15.8 480.94 36.67 480.85 36.67 467.07 12.5 459.43 16.22 459.43 47.21 466.2 47.21 466.2 22.46 466.29 22.46 480.46 47.21 487.71 47.21 487.71 12.5 480.94 15.8"/>
        <path d="M444.17,12.5h-.01l-10.11,4.93-10.62,29.78h7.64l2.42-7.16h12.81l2.22,7.16h7.88l-12.23-34.71ZM435.42,34.06l4.45-13.73h.1l4.3,13.73h-8.85Z"/>
        <polygon points="523.64 12.51 512.4 14.49 501.03 26.61 501.03 12.51 493.78 16.04 493.78 47.21 501.03 47.21 501.03 35.46 504.41 31.98 515.15 47.21 524.48 47.21 509.49 26.71 523.64 12.51"/>
      </g>
    </g>
    <g>
      <path d="M270.44,59.37h-.01l-10.11,4.93-10.62,29.78h7.64l2.42-7.16h12.81l2.22,7.16h7.88l-12.23-34.71ZM261.69,80.93l4.45-13.73h.1l4.3,13.73h-8.85Z"/>
      <path d="M404.1,59.37h-.01l-10.11,4.93-10.62,29.78h7.64l2.42-7.16h12.81l2.22,7.16h7.88l-12.23-34.71ZM395.35,80.93l4.45-13.73h.1l4.3,13.73h-8.85Z"/>
      <path d="M338.86,59.37h0l-10.11,4.93-10.62,29.78h7.64l2.42-7.16h12.81l2.22,7.16h7.88l-12.23-34.71ZM330.11,80.93l4.45-13.73h.1l4.3,13.73h-8.85Z"/>
      <path d="M234.98,88.75c-6.14,0-8.61-5.61-8.61-11.85,0-9.82,5.13-12.14,8.61-12.14,6,0,7.11,3.92,7.69,6h7.25c-.39-5.13-4.59-12.28-14.99-12.28-.13,0-.26,0-.39,0l-11.97,5.84c-2.25,3.01-3.59,7.18-3.59,12.48,0,11.99,6.62,18.23,15.86,18.23,8.7,0,13.64-5.27,15.09-12.81h-7.25c-.87,4.26-3.68,6.53-7.69,6.53Z"/>
      <polygon points="307.76 62.67 307.76 83.54 307.66 83.54 293.88 59.37 286.24 63.1 286.24 94.08 293.01 94.08 293.01 69.33 293.11 69.33 307.27 94.08 314.53 94.08 314.53 59.37 307.76 62.67"/>
      <path d="M370,59.36h-8.05l-7.28,3.55v31.17h15.04c11.46,0,14.41-10.74,14.41-18.18,0-6.58-2.42-16.54-14.12-16.54ZM368.84,88.09h-7.06v-22.73h6.96c3.1,0,7.98.82,7.98,11.07,0,5.71-1.98,11.65-7.88,11.65Z"/>
      <g>
        <polygon points="204.13 73.34 188.85 73.34 188.85 65.51 202.75 65.51 206.29 59.36 189.18 59.36 181.59 63.06 181.59 94.08 188.85 94.08 188.85 79.48 200.58 79.48 204.13 73.34"/>
        <path d="M160.13,58.68c-.32,0-.67.01-1.06.03l-12.01,5.86c-2.13,2.73-3.61,6.67-3.61,12.39,0,16.29,12.09,18.28,16.68,18.28s16.68-1.98,16.68-18.28-12.09-18.28-16.68-18.28ZM160.13,89.09c-3.92,0-9.43-2.42-9.43-12.14s5.51-12.14,9.43-12.14,9.43,2.42,9.43,12.14-5.51,12.14-9.43,12.14Z"/>
      </g>
    </g>
  </g>
</svg>